# xmcd
#
# Track frame offsets:
#	150
#	23722
#	36675
#	56997
#	71700
#	87907
#	102517
#	119450
#	131172
#
# Disc length: 1954 seconds
#
# Revision: 1
# Processed by: cddbd v1.5.1PL0 Copyright (c) Steve Scherf et al.
# Submitted via: audiograbber 1.83.01
#
DISCID=8a07a009
DTITLE=Martina McBRIDE - The Best of the Best
DYEAR=1900
DGENRE=Country
TTITLE0=Love's the only house
TTITLE1=I love you
TTITLE2=Whatever you say
TTITLE3=Wrong again
TTITLE4=A broken wing
TTITLE5=Safe in the arms of love
TTITLE6=Wild angels
TTITLE7=My baby loves me
TTITLE8=Independance Day
EXTD=
EXTT0=
EXTT1=
EXTT2=
EXTT3=
EXTT4=
EXTT5=
EXTT6=
EXTT7=
EXTT8=
PLAYORDER=
